<?xml version="1.0" encoding="UTF-8"?>
<svg xmlns="http://www.w3.org/2000/svg" xmlns:xlink="http://www.w3.org/1999/xlink" width="88px" height="100px" viewBox="0 0 88 100" version="1.1">
<g id="surface1">
<path style=" stroke:none;fill-rule:nonzero;fill:rgb(0%,0%,0%);fill-opacity:1;" d="M 0 28.128906 L 0 21.292969 C 0.132812 18.820312 1.113281 16.738281 2.945312 15.042969 C 4.78125 13.351562 6.941406 12.503906 9.429688 12.503906 L 18.855469 12.503906 L 18.855469 9.378906 C 18.855469 6.777344 19.773438 4.5625 21.605469 2.742188 C 23.4375 0.917969 25.664062 0.0078125 28.285156 0.0078125 L 59.710938 0.0078125 C 62.328125 0.0078125 64.554688 0.917969 66.386719 2.742188 C 68.222656 4.5625 69.136719 6.777344 69.136719 9.378906 L 69.136719 12.503906 L 78.566406 12.503906 C 81.054688 12.503906 83.214844 13.351562 85.046875 15.042969 C 86.882812 16.738281 87.863281 18.820312 87.996094 21.292969 L 87.996094 28.128906 C 87.996094 29.820312 87.371094 31.285156 86.128906 32.523438 C 84.882812 33.761719 83.410156 34.378906 81.710938 34.378906 L 81.710938 87.5 C 81.710938 91.015625 80.496094 93.976562 78.074219 96.386719 C 75.652344 98.796875 72.675781 100 69.136719 100 L 18.855469 100 C 15.320312 100 12.339844 98.796875 9.917969 96.386719 C 7.496094 93.976562 6.285156 91.015625 6.285156 87.5 L 6.285156 34.378906 C 4.582031 34.378906 3.109375 33.761719 1.867188 32.523438 C 0.621094 31.285156 0 29.824219 0 28.128906 Z M 6.285156 28.128906 L 81.710938 28.128906 L 81.710938 21.878906 C 81.710938 20.96875 81.414062 20.21875 80.824219 19.632812 C 80.234375 19.046875 79.484375 18.753906 78.566406 18.753906 L 9.429688 18.753906 C 8.511719 18.753906 7.757812 19.046875 7.167969 19.632812 C 6.578125 20.21875 6.285156 20.96875 6.285156 21.878906 Z M 12.570312 87.5 C 12.570312 89.195312 13.191406 90.65625 14.4375 91.894531 C 15.679688 93.132812 17.152344 93.75 18.855469 93.75 L 69.136719 93.75 C 70.839844 93.75 72.3125 93.132812 73.558594 91.894531 C 74.800781 90.660156 75.421875 89.195312 75.421875 87.5 L 75.421875 34.378906 L 12.570312 34.378906 Z M 18.855469 84.375 L 18.855469 43.753906 C 18.855469 42.84375 19.152344 42.09375 19.738281 41.507812 C 20.328125 40.921875 21.082031 40.628906 22 40.628906 L 28.285156 40.628906 C 29.199219 40.628906 29.953125 40.921875 30.542969 41.507812 C 31.132812 42.09375 31.425781 42.84375 31.425781 43.753906 L 31.425781 84.375 C 31.425781 85.289062 31.132812 86.035156 30.542969 86.621094 C 29.953125 87.207031 29.199219 87.5 28.285156 87.5 L 22 87.5 C 21.082031 87.5 20.328125 87.207031 19.738281 86.621094 C 19.152344 86.035156 18.855469 85.289062 18.855469 84.375 Z M 22 84.375 L 28.285156 84.375 L 28.285156 43.753906 L 22 43.753906 Z M 25.140625 12.503906 L 62.851562 12.503906 L 62.851562 9.378906 C 62.851562 8.46875 62.558594 7.722656 61.96875 7.136719 C 61.378906 6.550781 60.628906 6.257812 59.710938 6.257812 L 28.285156 6.257812 C 27.367188 6.257812 26.613281 6.550781 26.023438 7.136719 C 25.4375 7.722656 25.140625 8.46875 25.140625 9.378906 Z M 37.710938 84.375 L 37.710938 43.753906 C 37.710938 42.84375 38.007812 42.09375 38.597656 41.507812 C 39.183594 40.921875 39.9375 40.628906 40.855469 40.628906 L 47.140625 40.628906 C 48.054688 40.628906 48.808594 40.921875 49.398438 41.507812 C 49.988281 42.09375 50.28125 42.84375 50.28125 43.753906 L 50.28125 84.375 C 50.28125 85.289062 49.988281 86.035156 49.398438 86.621094 C 48.808594 87.207031 48.054688 87.5 47.140625 87.5 L 40.855469 87.5 C 39.9375 87.5 39.183594 87.207031 38.597656 86.621094 C 38.007812 86.035156 37.710938 85.289062 37.710938 84.375 Z M 40.855469 84.375 L 47.140625 84.375 L 47.140625 43.753906 L 40.855469 43.753906 Z M 56.566406 84.375 L 56.566406 43.753906 C 56.566406 42.84375 56.863281 42.09375 57.453125 41.507812 C 58.039062 40.921875 58.792969 40.628906 59.710938 40.628906 L 65.996094 40.628906 C 66.914062 40.628906 67.664062 40.921875 68.253906 41.507812 C 68.84375 42.09375 69.136719 42.84375 69.136719 43.753906 L 69.136719 84.375 C 69.136719 85.289062 68.84375 86.035156 68.253906 86.621094 C 67.664062 87.207031 66.914062 87.5 65.996094 87.5 L 59.710938 87.5 C 58.792969 87.5 58.039062 87.207031 57.453125 86.621094 C 56.863281 86.035156 56.566406 85.289062 56.566406 84.375 Z M 59.710938 84.375 L 65.996094 84.375 L 65.996094 43.753906 L 59.710938 43.753906 Z M 59.710938 84.375 "/>
</g>
</svg>
